<svg version="1.1" xmlns="http://www.w3.org/2000/svg" viewBox="0 0 246.19975712614269 141.0159271445027" width="200" height="120">
  <!-- svg-source:excalidraw -->
  
  <defs>
    <style class="style-fonts">
      @font-face {
        font-family: "Virgil";
        src: url("https://excalidraw.com/Virgil.woff2");
      }
      @font-face {
        font-family: "Cascadia";
        src: url("https://excalidraw.com/Cascadia.woff2");
      }
    </style>
  </defs>
  <rect x="0" y="0" width="246.19975712614269" height="141.0159271445027" fill="#ffffff"></rect><g stroke-linecap="round" transform="translate(138.47561645507812 11.28277515084119) rotate(0 44 59.86657599683076)"><path d="M0.8 0.91 L88.08 1.31 L88.09 119.7 L1.15 119.36" stroke="none" stroke-width="0" fill="#b581ff"></path><path d="M-0.23 0.11 C29.83 0.42, 59.95 -1.35, 87.15 1.96 M0.9 0.43 C33.5 -1.25, 66.59 -0.19, 87.77 0.13 M87.56 -0.75 C88.73 43.3, 89.59 88.91, 87.03 120.5 M87.35 0.94 C87.18 46.56, 87.09 90.75, 87.68 119.58 M89.73 120.79 C53.85 120.71, 23.44 122.02, -0.18 118.45 M88.12 120.23 C62.96 119.65, 39.2 118.29, 0.73 120.43 M1.13 118.69 C-0.7 87.36, -0.07 51.19, 1.18 0.37 M0.97 119.72 C-0.97 93.71, 0.54 67.8, -0.58 -0.68" stroke="#000000" stroke-width="4" fill="none"></path></g><g stroke-linecap="round" transform="translate(177.86381962614269 25.76529836723421) rotate(0 29.16796875 15)"><path d="M0.91 0.08 L59.65 0.09 L58.3 31.15 L-0.37 28.4" stroke="none" stroke-width="0" fill="#fff"></path><path d="M0.11 -0.13 C12.42 0.09, 22.46 -0.78, 60.3 1.54 M0.43 0.33 C20.27 -0.28, 42.43 -0.76, 58.46 0.74 M57.58 0.24 C57.06 11.33, 57.9 19.49, 59.11 31.64 M59.28 0.1 C59.06 6.69, 57.49 13.05, 58.19 30.76 M59.39 28.96 C41.04 32.18, 24.84 30.33, -1.28 29.48 M58.83 29.08 C44.48 29.51, 28.9 30.81, 0.69 29.86 M-1.05 29.47 C1.83 20.67, -0.15 12.33, 0.37 -1.63 M-0.01 29.44 C0.01 20.92, 0.29 9.34, -0.68 0.4" stroke="#000000" stroke-width="4" fill="none"></path></g><g transform="translate(187.15432894635615 30.18725028060362) rotate(0 19.5 12.5)"><text x="0" y="18" font-family="Virgil, Segoe UI Emoji" font-size="20px" fill="#000000" text-anchor="start" style="white-space: pre;" direction="ltr">CSS</text></g><g transform="translate(163.84225462914674 78.49636119375282) rotate(0 20 23)"><text x="0" y="32" font-family="Virgil, Segoe UI Emoji" font-size="36px" fill="#000" text-anchor="start" style="white-space: pre;" direction="ltr">{}</text></g><g stroke-linecap="round" transform="translate(10 10) rotate(0 43.92912551591962 59.86657599683076)"><path d="M1.15 -0.37 L86.26 1.79 L87.53 118.55 L-0.63 117.82" stroke="none" stroke-width="0" fill="#ff7353"></path><path d="M-0.85 1.96 C30.53 1.75, 58.96 2.32, 88.72 0.67 M-0.23 0.13 C19.89 0.2, 38.95 -0.43, 87.48 0.12 M86.89 0.77 C90.16 25.57, 87.95 52.93, 89.75 119.94 M87.54 -0.15 C88.63 45.62, 88.74 92.1, 88.39 119.22 M87.68 118.45 C60.04 119.28, 32.23 120.65, 0.99 117.89 M88.59 120.43 C58.11 119, 28.63 119.43, -0.52 119.47 M1.18 120.1 C-1.68 73.6, 0.91 28.02, -0.02 -1.11 M-0.58 119.05 C-0.75 82.42, -1.11 44.84, 0.05 -0.02" stroke="#000000" stroke-width="4" fill="none"></path></g><g stroke-linecap="round" transform="translate(37.01184005257528 24.48252321639302) rotate(0 35.331705729166515 14.87772623697947)"><path d="M-0.37 -1.6 L72.45 -0.33 L69.48 29.13 L-1.92 30.1" stroke="none" stroke-width="0" fill="#fff"></path><path d="M1.96 1.54 C22.51 1.27, 44.36 1.16, 71.33 -1.64 M0.13 0.74 C23.37 0.82, 45.69 -0.21, 70.78 -0.74 M71.43 1.64 C69.02 10, 69.26 23.02, 70.87 31.38 M70.51 0.76 C70.44 9.83, 71.3 18.44, 70.15 29.86 M69.38 29.24 C42.41 28.67, 16.65 30.69, -1.84 30.49 M71.36 29.61 C53.59 30.25, 36.79 29.75, -0.27 30.67 M0.37 28.13 C0.72 21.65, 1.96 11.59, -1.11 0.31 M-0.68 30.15 C0.33 18.01, 0.53 6.24, -0.02 0.57" stroke="#000000" stroke-width="4" fill="none"></path></g><g transform="translate(45.91278231549495 29.28538028112962) rotate(0 28 12.5)"><text x="0" y="18" font-family="Virgil, Segoe UI Emoji" font-size="20px" fill="#000000" text-anchor="start" style="white-space: pre;" direction="ltr">HTML</text></g><g transform="translate(26.317041105945464 81.10250060240651) rotate(0 29.5 23)"><text x="0" y="32" font-family="Virgil, Segoe UI Emoji" font-size="36px" fill="#000" text-anchor="start" style="white-space: pre;" direction="ltr">&lt;/&gt;</text></g></svg>