<svg version="1.1" xmlns="http://www.w3.org/2000/svg" viewBox="0 0 227.6752515109083 274.57433761202446" width="100" height="120">
  <!-- svg-source:excalidraw -->
  
  <defs>
    <style class="style-fonts">
      @font-face {
        font-family: "Virgil";
        src: url("https://excalidraw.com/Virgil.woff2");
      }
      @font-face {
        font-family: "Cascadia";
        src: url("https://excalidraw.com/Cascadia.woff2");
      }
    </style>
  </defs>
  <rect x="0" y="0" width="227.6752515109083" height="274.57433761202446" fill="#ffffff"></rect><g stroke-linecap="round" transform="translate(10 10) rotate(0 93.40126643189683 127.28716880601223)"><path d="M1.13 -1.11 L185.16 -1.97 L185.34 254.08 L-1.61 254.25" stroke="none" stroke-width="0" fill="#ff7353"></path><path d="M-0.6 1.73 C49.61 -0.7, 98.07 -1.43, 188.2 -0.92 M0.41 -0.61 C55.77 0.4, 113.8 0.63, 186.94 -0.63 M187.66 -0.24 C185.23 67.01, 184.67 131.17, 187.99 255.46 M187.52 -0.33 C184.5 69.75, 184.37 141.02, 186.15 255.24 M188.24 253.75 C143.85 251.24, 102.89 251.21, 0.68 255.77 M187.36 255.47 C134.55 254.78, 81.45 255.58, 0.32 254.96 M-1.38 255.14 C-0.28 186.84, -0.42 123.4, 1.26 -0.74 M0.57 254.27 C-0.16 196.93, 0.05 140.32, -0.36 0.13" stroke="#000000" stroke-width="4" fill="none"></path></g><g stroke-linecap="round" transform="translate(67.43205765960602 40.79246385294209) rotate(0 75.12159692565115 31.63273695619864)"><path d="M-1.11 -1.64 L148.28 -1.46 L149.75 61.65 L-0.32 64.68" stroke="none" stroke-width="0" fill="#fff"></path><path d="M1.73 0.29 C56.77 -0.1, 112.05 1.85, 149.33 0.06 M-0.61 -0.78 C55.63 0.07, 112.17 -0.49, 149.61 -0.42 M149.94 0.1 C152.24 13.31, 150.23 29.29, 151.33 62.81 M149.84 -0.67 C149.84 12.74, 150.78 26.34, 151.07 62.52 M149.42 62.5 C107.31 64.8, 66.08 65.03, 1.19 62.88 M151.14 63.46 C114.66 63.64, 80.8 64.42, 0.39 62.87 M0.7 63.27 C-2.24 43.25, 1.31 25.13, -0.92 -1.53 M-0.38 62.81 C-1.34 44.74, -0.93 26.17, 0.16 0.57" stroke="#000000" stroke-width="4" fill="none"></path></g><g transform="translate(86.3570708491502 51.00420667889921) rotate(0 58.46997400269993 26.57726091031782)"><text x="0" y="37.154521820636226" font-family="Virgil, Segoe UI Emoji" font-size="42.52361745650898px" fill="#000000" text-anchor="start" style="white-space: pre;" direction="ltr">HTML</text></g><g transform="translate(44.692980700569024 161.17677679089684) rotate(0 61.65924531193809 47.839069638572255)"><text x="0" y="66.6781392771452" font-family="Virgil, Segoe UI Emoji" font-size="76.54251142171617px" fill="#000" text-anchor="start" style="white-space: pre;" direction="ltr">&lt;/&gt;</text></g></svg>